<?xml version="1.0" standalone="no"?>
<!DOCTYPE svg PUBLIC "-//W3C//DTD SVG 20010904//EN"
 "http://www.w3.org/TR/2001/REC-SVG-20010904/DTD/svg10.dtd">
<svg version="1.0" xmlns="http://www.w3.org/2000/svg"
 width="1094.000000pt" height="1094.000000pt" viewBox="0 0 1094.000000 1094.000000"
 preserveAspectRatio="xMidYMid meet">
<metadata>
Created by potrace 1.14, written by Peter Selinger 2001-2017
</metadata>
<g transform="translate(0.000000,1094.000000) scale(0.100000,-0.100000)"
fill="#000000" stroke="none">
<path d="M7958 8205 c-2 -3 -29 -7 -59 -10 -288 -28 -649 -133 -904 -263 -137
-69 -338 -193 -429 -263 -135 -104 -286 -243 -401 -369 -27 -30 -53 -54 -58
-52 -4 1 -6 -2 -5 -7 2 -5 -17 -35 -41 -66 -24 -31 -40 -59 -36 -63 4 -4 10
-1 12 6 3 7 15 24 27 37 11 13 41 47 66 76 25 28 80 86 124 128 110 107 115
111 176 161 30 25 60 49 67 55 55 45 171 125 181 125 6 0 12 4 14 8 11 26 286
172 448 237 477 191 985 246 1470 158 47 -8 96 -17 110 -19 14 -3 77 -18 140
-35 841 -223 1540 -871 1827 -1694 36 -104 100 -343 108 -401 2 -19 7 -49 10
-66 8 -40 11 -70 22 -168 12 -111 8 -494 -6 -580 -7 -41 -15 -88 -17 -105 -4
-29 -14 -83 -19 -115 -14 -76 -73 -282 -109 -378 -47 -128 -165 -376 -218
-458 -100 -156 -123 -189 -128 -194 -3 -3 -27 -34 -54 -70 -66 -88 -73 -95
-230 -252 -75 -75 -145 -140 -156 -143 -11 -4 -20 -10 -20 -14 0 -5 -26 -28
-57 -52 -32 -24 -67 -52 -77 -61 -11 -10 -24 -18 -28 -18 -5 0 -18 -9 -30 -20
-12 -11 -34 -26 -50 -32 -15 -7 -28 -16 -28 -20 0 -5 -5 -8 -11 -8 -6 0 -29
-13 -52 -29 -137 -93 -440 -225 -667 -290 -78 -22 -91 -25 -175 -41 -83 -17
-88 -17 -145 -25 -30 -4 -64 -9 -75 -11 -140 -28 -595 -19 -727 14 -5 1 -9 2
-10 3 -2 0 -19 2 -38 5 -49 6 -75 11 -75 14 0 1 -9 3 -20 5 -90 13 -273 64
-390 110 -250 96 -406 178 -612 321 -50 35 -97 70 -105 77 -7 7 -33 28 -58 47
-74 57 -250 223 -250 236 0 3 -11 15 -25 26 -14 11 -25 26 -25 34 0 8 -4 13
-9 10 -5 -3 -21 10 -36 30 -15 19 -29 33 -32 30 -3 -2 7 -20 21 -39 14 -18 23
-37 18 -42 -4 -5 -2 -5 4 -2 6 3 29 -15 51 -41 296 -345 740 -639 1178 -782
55 -18 107 -35 115 -38 8 -3 20 -6 25 -7 6 -2 37 -10 70 -19 33 -9 76 -19 95
-21 19 -3 46 -7 60 -10 14 -3 41 -8 60 -10 19 -3 49 -7 65 -10 127 -20 487
-27 639 -12 235 22 508 87 713 168 102 40 314 140 331 156 7 7 18 13 23 13 5
0 33 16 63 35 30 19 59 35 65 35 5 0 11 3 13 8 2 4 30 25 63 47 33 22 67 45
75 52 8 7 44 35 80 63 80 63 186 156 218 192 14 15 30 25 36 21 6 -3 8 -3 4 1
-8 10 23 47 34 40 5 -3 7 -1 6 4 -2 5 17 32 42 59 250 274 451 622 574 993 8
25 20 65 26 90 6 25 14 52 17 60 13 33 50 217 63 320 6 47 13 99 16 115 9 52
11 387 3 460 -4 39 -10 95 -13 125 -3 30 -7 64 -9 75 -3 11 -8 40 -12 65 -4
25 -9 54 -11 65 -2 11 -6 32 -9 46 -10 52 -55 216 -79 288 -14 40 -23 77 -20
82 3 5 0 9 -5 9 -6 0 -11 5 -11 10 0 22 -113 270 -166 364 -50 89 -150 247
-181 286 -7 8 -35 44 -63 79 -75 95 -165 195 -249 275 -40 39 -84 81 -96 93
-48 46 -225 179 -330 249 -325 213 -734 363 -1120 410 -16 2 -46 6 -65 9 -40
7 -526 16 -532 10z"/>
<path d="M8381 7753 c2 -6 31 -41 64 -79 33 -37 59 -72 57 -77 -1 -4 2 -6 8
-2 5 3 10 1 10 -5 0 -7 10 -21 23 -32 12 -11 15 -17 7 -13 -8 4 -3 -3 13 -15
15 -12 27 -28 27 -35 0 -7 7 -16 16 -19 9 -4 14 -9 11 -12 -3 -3 2 -14 11 -23
26 -27 47 -62 45 -72 -2 -5 1 -9 6 -9 11 0 137 -211 133 -222 -1 -5 2 -8 8 -8
6 0 10 -9 10 -20 0 -11 4 -20 9 -20 8 0 74 -134 71 -146 -1 -4 4 -10 10 -14
12 -7 -10 -13 -95 -25 -16 -2 -68 -11 -115 -19 -47 -9 -107 -18 -135 -22 -27
-3 -61 -7 -75 -9 -14 -2 -47 -7 -75 -10 -27 -3 -63 -7 -80 -9 -16 -2 -64 -7
-105 -11 -41 -3 -93 -8 -115 -10 -22 -2 -76 -7 -120 -11 -44 -3 -96 -8 -115
-9 -19 -2 -48 -4 -63 -4 -18 -1 -27 -6 -25 -13 15 -43 753 -59 1048 -23 146
18 136 18 148 -12 29 -72 35 -88 37 -93 1 -3 4 -12 8 -20 26 -67 46 -130 41
-130 -4 0 -2 -6 4 -12 8 -11 20 -45 38 -113 1 -5 7 -25 13 -42 7 -24 6 -33 -2
-34 -7 0 -21 -2 -32 -5 -11 -2 -31 -6 -45 -9 -22 -3 -78 -14 -160 -30 -14 -3
-38 -7 -55 -10 -16 -3 -43 -7 -60 -10 -16 -3 -50 -8 -75 -11 -25 -3 -58 -7
-75 -11 -16 -3 -41 -6 -55 -8 -14 -1 -44 -6 -67 -9 -23 -4 -55 -9 -70 -11
-148 -20 -181 -28 -177 -40 3 -7 26 -15 52 -18 52 -5 613 1 677 7 22 2 74 7
116 11 l76 7 11 -43 c15 -59 51 -228 58 -269 1 -8 5 -33 8 -55 4 -22 8 -47 11
-55 2 -8 7 -40 10 -71 l7 -56 -47 -7 c-26 -4 -57 -9 -68 -12 -12 -2 -38 -7
-57 -10 -19 -2 -57 -9 -85 -14 -27 -5 -66 -12 -85 -15 -39 -6 -95 -16 -125
-21 -37 -7 -150 -26 -172 -29 -37 -5 -63 -16 -63 -27 0 -10 404 -5 515 6 141
14 181 18 187 22 18 12 27 -51 43 -316 16 -273 17 -267 -47 -276 -18 -3 -67
-12 -108 -20 -41 -9 -88 -18 -105 -20 -16 -3 -46 -9 -65 -14 -19 -5 -48 -12
-65 -14 -16 -3 -41 -8 -55 -11 -14 -3 -34 -8 -45 -10 -11 -3 -31 -7 -45 -10
-47 -11 -75 -17 -88 -19 -7 -1 -12 -6 -12 -12 0 -10 237 -10 465 1 83 4 152 7
155 7 23 1 27 -6 24 -44 -1 -24 -5 -97 -8 -163 -4 -67 -8 -130 -10 -140 -2
-11 -7 -51 -11 -90 -4 -38 -9 -72 -11 -74 -5 -5 -14 -8 -64 -16 -19 -4 -51
-10 -70 -15 -19 -5 -55 -12 -80 -15 -24 -4 -47 -8 -50 -10 -3 -2 -29 -6 -59
-10 -30 -4 -63 -9 -75 -11 -11 -2 -38 -6 -61 -9 -22 -3 -47 -8 -55 -10 -8 -2
-41 -7 -73 -10 -32 -4 -68 -8 -80 -11 -28 -5 -93 -15 -132 -19 -31 -4 -103
-14 -144 -20 -28 -5 -37 -12 -27 -22 16 -17 626 -7 791 12 17 2 58 6 92 10
l62 6 -5 -28 c-2 -15 -7 -39 -11 -53 -11 -44 -14 -55 -18 -75 -8 -42 -15 -68
-40 -148 -31 -101 -33 -105 -70 -111 -41 -8 -219 -34 -275 -41 -25 -3 -63 -8
-85 -10 -94 -13 -113 -15 -170 -20 -33 -3 -80 -8 -104 -11 -24 -3 -80 -7 -123
-10 -44 -3 -101 -7 -126 -9 -26 -2 -123 -7 -217 -11 -93 -4 -192 -8 -220 -9
-27 -2 -65 -3 -83 -4 -25 -1 -33 -5 -30 -17 2 -13 17 -18 63 -20 33 -2 101 -5
150 -8 96 -6 570 -7 645 -2 25 2 89 7 143 10 53 4 106 9 117 11 11 2 52 7 92
10 107 10 129 12 177 21 l44 7 -16 -29 c-8 -16 -25 -53 -38 -81 -13 -29 -27
-53 -30 -53 -4 0 -10 -11 -13 -25 -4 -14 -11 -25 -16 -25 -6 0 -10 -6 -10 -14
0 -8 -7 -17 -16 -20 -8 -3 -13 -10 -10 -14 3 -5 -4 -18 -14 -30 -11 -12 -20
-26 -20 -31 0 -5 -15 -26 -34 -45 -18 -20 -31 -36 -29 -36 2 0 -20 -25 -49
-55 -29 -30 -59 -55 -67 -55 -8 0 -11 -3 -8 -6 7 -7 -67 -64 -82 -64 -5 0 -11
-3 -13 -7 -1 -5 -21 -18 -43 -30 -22 -12 -39 -26 -38 -30 3 -10 43 -13 43 -3
0 7 22 16 44 18 5 0 12 4 15 9 3 4 39 30 79 56 63 41 191 152 226 196 6 7 23
26 38 42 14 16 24 29 22 29 -3 0 5 10 16 23 12 12 29 34 38 50 9 15 20 27 24
27 4 0 8 5 8 12 0 6 11 26 25 44 14 18 25 37 25 43 0 6 5 11 12 11 6 0 9 3 5
6 -3 3 5 24 19 45 13 21 24 43 24 49 0 10 19 16 75 24 17 2 41 7 55 10 14 3
39 7 55 10 17 2 58 11 93 19 59 14 62 14 50 -1 -7 -9 -17 -20 -23 -24 -5 -4
-6 -8 -2 -8 7 0 -17 -40 -46 -75 -4 -5 -25 -34 -47 -64 -22 -30 -53 -69 -70
-87 -45 -50 -40 -71 7 -34 14 11 23 20 20 20 -3 0 6 12 21 27 15 15 32 26 37
25 6 -2 7 -1 3 3 -4 4 -2 13 5 20 7 7 26 29 42 50 17 21 40 49 52 62 12 12 19
23 15 23 -4 0 2 7 13 16 11 8 18 16 15 17 -3 1 6 16 20 34 17 20 46 38 90 54
36 13 85 33 109 46 24 13 46 23 48 23 6 0 -53 -83 -80 -112 -15 -16 -23 -28
-20 -28 3 0 -5 -10 -18 -23 -35 -34 -89 -99 -89 -109 0 -18 20 -5 71 48 30 32
69 72 86 91 18 18 32 36 32 39 -1 3 10 18 23 32 12 15 31 40 41 55 21 33 76
87 88 87 12 0 45 28 83 69 17 19 40 42 50 53 11 10 16 18 11 18 -4 0 -1 8 7
18 9 9 23 32 32 50 11 21 21 30 29 25 7 -4 7 0 -2 10 -7 9 -9 17 -3 17 5 0 19
17 30 38 11 20 30 57 43 82 37 69 49 100 41 100 -5 0 -21 -27 -37 -60 -15 -32
-31 -57 -35 -55 -3 2 -6 -4 -7 -14 -4 -45 -114 -180 -150 -183 -4 -1 -14 -8
-21 -17 -10 -13 -10 -11 -1 12 7 15 16 27 21 27 5 0 6 5 3 10 -3 6 -1 10 4 10
6 0 10 3 9 8 -1 4 6 23 17 42 10 19 20 41 21 49 2 8 6 17 11 20 4 3 9 12 11
20 2 8 10 30 19 50 9 20 18 44 19 54 2 10 11 28 19 40 7 12 14 26 14 30 1 9
131 111 131 102 0 -3 -12 -33 -26 -66 -14 -34 -22 -64 -19 -67 8 -8 21 13 42
68 9 25 21 48 26 51 5 3 7 8 6 10 -5 7 29 87 40 93 18 12 53 121 61 196 5 41
18 118 29 170 21 101 28 148 37 245 3 33 11 83 18 110 19 73 21 199 4 193 -10
-4 -13 10 -14 61 -1 78 -10 162 -24 246 -6 33 -13 76 -17 95 -6 35 -6 53 -3
160 0 30 -1 62 -3 70 -26 105 -39 122 -52 73 -7 -26 -9 -24 -27 32 -10 33 -23
69 -27 80 -5 11 -16 36 -24 55 -8 19 -29 68 -47 108 -42 97 -60 159 -60 205 0
55 -19 122 -41 146 -11 12 -17 21 -14 21 3 0 -2 11 -11 25 -24 36 -34 31 -30
-17 4 -46 -1 -68 -16 -68 -5 0 -6 5 -3 10 3 6 2 10 -3 10 -5 0 -15 12 -23 27
-8 15 -22 37 -31 48 -10 11 -17 23 -18 28 0 4 -12 20 -26 36 -14 16 -24 31
-23 33 2 2 -10 17 -26 35 -17 18 -39 44 -50 59 -11 14 -34 39 -51 56 -29 26
-32 35 -30 81 2 39 -4 64 -23 100 -14 26 -29 47 -33 47 -4 0 -8 6 -8 13 0 6
-14 21 -30 32 -16 11 -30 25 -30 31 0 10 -21 24 -36 24 -9 0 -3 -29 7 -32 5
-2 11 -10 12 -18 2 -8 6 -20 9 -26 10 -15 6 -74 -5 -81 -6 -3 -7 -1 -3 5 4 7
2 12 -5 12 -7 0 -29 18 -51 39 -21 22 -38 36 -38 33 0 -4 -4 -2 -8 4 -4 5 -41
37 -82 69 -41 33 -78 64 -81 68 -3 5 -10 9 -15 9 -5 1 -26 12 -47 26 -45 30
-56 25 -23 -11 13 -14 26 -24 29 -21 3 3 14 -6 25 -20 11 -15 25 -26 30 -26 6
0 18 -10 26 -22 9 -12 16 -19 16 -14 0 5 12 -3 26 -18 15 -14 31 -26 37 -26 6
0 7 -3 4 -7 -4 -3 7 -16 23 -28 17 -13 50 -42 74 -66 l44 -44 -50 -48 c-28
-26 -53 -46 -56 -43 -3 3 -11 -2 -17 -11 -12 -15 -22 -8 -98 67 -81 82 -145
140 -216 197 -19 16 -46 38 -59 51 -14 12 -40 32 -59 43 -18 11 -33 26 -33 31
0 6 -3 9 -6 5 -4 -3 -21 5 -39 18 -17 14 -35 25 -38 25 -10 0 -9 -30 1 -30 4
0 29 -21 55 -45 27 -25 53 -45 58 -45 6 0 7 -6 3 -12 -4 -7 -3 -9 1 -5 9 7 34
-15 154 -134 48 -48 147 -155 182 -197 7 -9 5 -14 -8 -19 -10 -3 -38 -15 -63
-26 -24 -11 -49 -20 -55 -21 -5 -1 -20 -7 -31 -14 -19 -10 -24 -8 -45 20 -13
17 -30 37 -36 44 -7 7 -13 17 -13 22 0 6 -7 13 -16 16 -8 3 -12 11 -9 16 4 6
3 9 -2 8 -4 -2 -9 0 -11 4 -11 22 -216 231 -326 333 -35 32 -95 79 -136 108
-14 9 -36 25 -50 34 -14 10 38 -44 115 -120 77 -75 137 -137 134 -137 -4 0 12
-19 35 -42 38 -39 71 -78 161 -193 17 -22 29 -42 28 -47 -2 -4 1 -8 5 -8 7 0
72 -85 72 -94 0 -2 -17 -7 -37 -12 -44 -9 -52 -11 -55 -14 -2 -1 -10 -3 -18
-5 -42 -9 -131 -35 -139 -40 -11 -6 -53 49 -44 59 3 3 1 6 -5 6 -6 0 -14 9
-17 21 -4 11 -20 40 -36 64 -16 24 -29 48 -29 54 0 6 -4 11 -8 11 -10 0 -47
62 -44 73 1 4 -5 10 -13 13 -8 4 -15 12 -15 20 0 8 -4 14 -8 14 -4 0 -19 18
-32 40 -14 22 -28 40 -32 40 -5 0 -8 5 -8 10 0 6 -8 18 -17 28 -27 28 -49 56
-48 62 0 3 -17 22 -37 42 -21 20 -38 39 -38 42 0 3 -22 27 -50 54 -27 27 -50
55 -50 62 0 7 -3 10 -6 7 -4 -4 -14 1 -23 11 -25 28 -104 87 -100 75z m1550
-684 c19 -23 43 -50 53 -60 11 -11 16 -19 12 -19 -4 0 7 -15 23 -32 17 -18 31
-38 31 -43 0 -6 8 -18 18 -27 28 -27 43 -48 35 -48 -4 0 0 -5 10 -11 9 -6 15
-14 12 -20 -4 -5 -1 -9 4 -9 6 0 11 -7 11 -15 0 -8 4 -15 9 -15 5 0 13 -9 16
-21 6 -17 -6 -33 -61 -85 -37 -35 -71 -64 -76 -64 -4 0 -10 0 -13 0 -3 0 -5 3
-6 8 0 4 -7 14 -15 23 -8 9 -11 19 -7 22 3 4 2 7 -4 7 -6 0 -14 11 -17 25 -4
14 -11 25 -17 25 -6 0 -7 5 -4 10 3 6 2 10 -3 10 -5 0 -15 14 -22 30 -7 17
-17 30 -22 30 -5 0 -7 4 -4 9 3 5 -1 12 -10 15 -9 4 -14 9 -11 12 3 4 1 12 -6
20 -26 29 -37 43 -37 49 0 3 -8 13 -17 24 -37 39 -51 64 -46 77 3 8 9 14 14
14 4 0 17 10 29 22 11 12 20 19 20 15 0 -11 36 28 43 46 10 25 20 21 58 -24z
m-225 -146 c13 -16 24 -34 24 -40 0 -7 5 -13 10 -13 6 0 10 -7 10 -15 0 -8 5
-15 10 -15 6 0 10 -7 10 -15 0 -8 5 -15 10 -15 6 0 10 -7 10 -15 0 -8 5 -15
11 -15 5 0 8 -4 5 -9 -3 -5 1 -12 10 -15 8 -3 13 -10 9 -15 -3 -5 -1 -12 4
-16 11 -6 103 -167 99 -170 -9 -6 -99 -45 -103 -45 -6 0 -92 -37 -107 -47 -10
-5 -69 113 -61 121 4 3 2 6 -4 6 -8 0 -35 43 -37 60 -1 3 -11 19 -23 36 -12
17 -20 34 -16 38 3 3 1 6 -6 6 -7 0 -9 5 -6 10 3 6 2 10 -2 10 -9 0 -39 45
-44 65 -1 6 -9 15 -18 22 -9 7 -12 13 -7 13 5 0 3 6 -3 14 -9 11 -3 16 34 25
25 6 48 11 51 10 4 0 10 4 13 10 4 6 16 12 26 14 11 1 29 8 40 15 27 15 24 16
51 -15z m-282 -135 c-3 -4 -1 -8 5 -8 5 0 13 -10 17 -22 4 -13 10 -25 14 -28
7 -5 131 -247 130 -255 0 -3 6 -18 14 -33 11 -21 12 -29 3 -30 -7 0 -21 -3
-32 -6 -124 -34 -279 -75 -281 -73 -1 1 -16 43 -33 93 -17 50 -46 127 -65 172
-18 44 -31 83 -28 86 3 4 1 6 -4 6 -9 0 -37 62 -34 76 1 4 -4 11 -12 15 -9 6
-7 9 10 10 26 2 30 3 57 12 11 3 36 9 55 12 19 2 60 11 90 19 55 14 55 14 77
-12 12 -14 20 -29 17 -34z m851 -248 c-3 -5 -2 -10 3 -10 9 0 25 -37 23 -52
-1 -5 3 -8 8 -8 5 0 12 -10 16 -22 4 -13 8 -25 9 -28 1 -3 7 -15 14 -27 7 -13
9 -23 5 -23 -4 0 -3 -4 3 -8 8 -6 51 -112 59 -146 1 -6 5 -18 8 -26 28 -76 28
-79 -8 -115 -18 -19 -38 -35 -45 -35 -6 0 -9 -4 -6 -9 6 -9 -22 -26 -36 -23
-5 1 -8 -2 -8 -8 0 -5 -9 -14 -20 -20 -11 -6 -20 -7 -19 -3 1 4 0 15 -4 23 -7
20 -61 184 -62 190 0 3 -7 16 -15 30 -7 14 -12 25 -11 25 3 0 -13 40 -40 100
-30 67 -30 73 -8 80 10 4 19 11 19 16 0 5 6 9 13 9 6 1 32 23 57 50 43 48 58
61 45 40z m-232 -215 c9 -20 17 -44 17 -55 0 -10 4 -20 10 -22 5 -1 11 -12 13
-23 2 -11 9 -30 15 -42 7 -13 10 -23 7 -23 -4 0 -3 -6 2 -12 4 -7 8 -15 9 -18
0 -3 4 -12 7 -20 3 -8 19 -55 35 -105 l30 -90 -33 -17 c-18 -9 -39 -18 -46
-20 -8 -2 -16 -5 -19 -8 -3 -3 -36 -18 -73 -33 -66 -26 -92 -28 -84 -4 2 7 -2
27 -10 45 -7 17 -10 32 -7 32 4 0 1 7 -6 15 -7 8 -10 15 -7 15 3 0 -6 30 -19
68 -14 37 -25 69 -26 72 -3 20 -47 141 -59 162 -5 10 -9 19 -9 22 0 4 51 26
71 30 8 2 28 8 44 15 17 6 32 11 35 10 3 -1 21 8 40 20 19 11 38 21 41 21 3 0
13 -16 22 -35z m-362 -90 c2 -23 4 -28 18 -53 7 -13 10 -26 7 -29 -3 -4 -2
-11 3 -17 9 -12 34 -81 38 -106 1 -8 11 -46 23 -85 22 -75 27 -98 36 -157 5
-30 2 -38 -10 -39 -17 -2 -33 -5 -41 -9 -3 -1 -8 -3 -12 -4 -5 -2 -28 -9 -53
-16 -25 -8 -49 -14 -55 -15 -5 0 -15 -4 -21 -7 -6 -4 -21 -9 -35 -12 -13 -2
-45 -11 -71 -19 -26 -8 -47 -12 -46 -8 2 5 -8 67 -19 116 -2 11 -6 31 -8 45
-2 14 -6 34 -9 45 -17 66 -37 141 -59 223 -13 50 -22 92 -18 93 8 1 23 4 131
27 52 11 113 23 134 26 22 4 42 9 45 11 9 10 21 5 22 -10z m830 -377 c1 -15 2
-31 3 -35 2 -5 6 -30 10 -58 4 -27 9 -61 12 -74 2 -14 6 -68 10 -120 3 -53 7
-109 9 -126 2 -25 -5 -38 -45 -75 -49 -47 -59 -55 -101 -82 l-27 -17 1 42 c0
23 -4 80 -8 127 -11 123 -12 130 -21 180 -10 58 -7 154 5 158 5 2 22 14 37 27
15 13 31 22 36 19 4 -3 8 -1 8 5 0 14 42 57 58 57 6 0 13 -12 13 -28z m-267
-195 c4 -27 9 -57 12 -68 2 -11 6 -42 10 -70 3 -27 8 -61 10 -75 2 -14 6 -72
9 -130 l6 -105 -53 -24 c-145 -64 -208 -90 -209 -83 -1 4 -2 36 -4 72 -5 97
-15 242 -20 270 -27 172 -30 158 45 185 36 12 90 34 120 48 30 14 58 26 61 26
4 1 10 -20 13 -46z m-394 -87 c0 -2 4 -25 9 -52 9 -45 17 -105 27 -194 2 -19
6 -88 10 -152 l6 -117 -43 -12 c-60 -17 -61 -17 -88 -23 -13 -3 -49 -13 -80
-22 -31 -9 -58 -16 -61 -16 -3 0 -26 -9 -52 -19 l-48 -19 -1 68 c-1 121 -8
212 -25 372 -9 84 -10 120 -4 119 3 0 16 4 30 9 14 5 45 12 70 16 25 3 55 8
68 11 12 3 30 7 41 9 10 2 36 7 57 10 21 4 39 8 40 9 4 4 44 6 44 3z m685
-443 c-3 -27 -7 -66 -10 -88 -2 -22 -7 -62 -11 -90 -3 -27 -12 -77 -20 -110
-9 -33 -15 -68 -15 -77 0 -10 -5 -20 -10 -23 -5 -4 -7 -10 -4 -15 4 -6 -23
-33 -91 -89 -37 -31 -72 -33 -42 -3 7 7 9 12 6 12 -3 0 0 28 9 63 16 67 18 77
29 177 4 36 8 74 9 85 1 11 3 36 4 56 1 28 7 39 28 50 29 15 76 53 102 82 8 9
16 17 18 17 1 0 0 -21 -2 -47z m-249 -195 c-11 -132 -31 -271 -51 -348 -2 -8
-4 -20 -4 -27 -1 -11 -38 -29 -53 -25 -5 1 -8 -2 -8 -7 0 -5 -12 -12 -27 -17
-36 -10 -32 -8 -78 -29 -22 -9 -47 -19 -55 -20 -8 -2 -16 -4 -17 -4 -2 -1 -6
-1 -9 0 -4 0 -11 -5 -16 -13 -5 -8 -6 1 -2 22 4 19 8 44 9 55 2 11 4 20 5 20
1 0 3 9 4 20 2 11 6 40 11 65 9 52 11 73 21 192 4 49 12 92 18 97 10 8 68 29
99 36 7 1 28 8 47 16 19 7 38 12 43 11 4 -1 7 3 7 10 0 6 3 8 6 5 4 -3 16 0
28 8 11 8 22 15 25 15 2 0 1 -37 -3 -82z m-390 -160 c-8 -123 -16 -191 -37
-318 l-11 -66 -162 -38 c-88 -21 -172 -40 -185 -43 -25 -6 -25 -5 -5 99 3 17
10 81 19 175 3 29 7 89 10 134 3 46 6 84 8 85 2 2 141 30 247 50 19 4 51 10
70 14 19 4 39 8 43 9 5 0 6 -45 3 -101z m277 -420 c-4 -7 -8 -16 -9 -20 -1 -5
-2 -9 -3 -10 -2 -2 -4 -14 -7 -27 -2 -14 -9 -30 -14 -36 -5 -7 -7 -15 -3 -18
3 -4 2 -7 -4 -7 -5 0 -10 -6 -10 -13 0 -17 -56 -141 -65 -145 -5 -2 -6 -7 -3
-12 3 -5 0 -14 -7 -22 -7 -7 -14 -19 -16 -26 -6 -29 -35 -61 -70 -77 -20 -9
-46 -20 -57 -25 -71 -32 -156 -59 -145 -45 7 8 10 15 6 15 -3 0 5 18 18 39 14
21 22 42 19 45 -4 3 -1 6 5 6 7 0 11 3 10 8 -1 4 14 50 34 102 21 52 40 107
44 122 5 22 34 61 38 50 1 -1 17 3 36 10 19 7 37 12 40 11 3 0 41 19 85 42 44
23 81 43 83 44 2 0 0 -5 -5 -11z m-363 -132 c0 -4 -20 -65 -28 -86 -3 -8 -6
-17 -7 -20 -4 -19 -29 -87 -34 -95 -3 -5 -7 -18 -8 -27 -1 -9 -13 -41 -26 -70
-13 -29 -27 -60 -30 -69 -3 -10 -56 -30 -153 -59 -82 -24 -156 -44 -164 -45
-9 0 -21 -4 -28 -9 -17 -10 -15 15 4 42 8 12 12 22 8 22 -3 0 -1 7 6 15 7 8 9
15 6 15 -4 0 -2 9 4 21 7 11 28 80 49 152 l37 132 114 28 c63 15 138 33 165
41 50 14 85 19 85 12z"/>
<path d="M1600 6554 c-111 -20 -193 -70 -235 -144 -31 -55 -31 -178 0 -255 41
-100 108 -143 295 -191 143 -36 185 -60 190 -109 12 -111 -55 -157 -212 -148
-69 3 -158 29 -158 44 0 6 -5 7 -10 4 -6 -3 -23 3 -39 14 -16 12 -32 21 -35
21 -4 0 -24 -36 -45 -81 l-39 -81 64 -30 c164 -77 410 -87 536 -22 97 50 140
127 142 254 2 183 -62 250 -298 310 -139 35 -175 53 -198 101 -27 53 -9 105
43 128 66 30 214 16 318 -30 24 -10 46 -18 47 -16 9 9 64 138 64 150 0 15 -44
34 -140 62 -54 15 -241 28 -290 19z"/>
<path d="M3776 6541 c-2 -3 -4 -45 -4 -93 -1 -63 2 -88 11 -89 6 -1 51 -3 100
-3 l87 -2 0 96 0 96 -96 0 c-52 0 -97 -2 -98 -5z"/>
<path d="M4174 6541 c-9 -9 -4 -181 6 -182 6 0 44 -1 85 -1 41 0 81 1 89 1 11
1 14 22 15 91 1 50 -2 90 -6 91 -37 3 -185 3 -189 0z"/>
<path d="M6833 6541 c-5 -3 -9 -46 -8 -96 l0 -90 95 0 95 0 0 95 0 95 -87 1
c-48 0 -91 -2 -95 -5z"/>
<path d="M2421 6268 c-119 -18 -204 -83 -230 -175 -7 -25 -6 -29 13 -30 11 -1
61 -7 111 -14 70 -9 90 -9 93 1 10 30 43 50 81 50 56 0 82 -25 84 -80 l2 -45
-120 0 c-128 -1 -179 -12 -231 -51 -81 -60 -95 -222 -27 -312 69 -91 258 -107
350 -28 l28 24 10 -31 10 -32 101 0 c97 0 102 1 97 20 -3 11 -7 130 -9 265 -6
304 -14 333 -109 397 -62 41 -154 56 -254 41z m155 -441 c-6 -30 -18 -57 -27
-57 -6 0 -8 -4 -5 -9 11 -17 -63 -53 -111 -55 -59 -1 -87 28 -71 74 5 17 11
30 11 30 1 0 18 6 38 13 49 17 168 20 165 4z"/>
<path d="M3279 6266 c-32 -7 -73 -24 -93 -39 l-36 -28 0 30 c0 30 -1 31 -50
32 -64 1 -127 1 -142 0 -17 -1 -19 -710 -3 -712 37 -4 178 -3 185 1 5 3 10 99
11 213 1 213 7 254 45 303 37 49 141 42 160 -10 5 -11 11 -131 14 -266 l5
-244 97 -1 c79 -1 97 2 100 15 2 8 3 130 2 270 -2 271 -7 304 -55 372 -42 58
-142 85 -240 64z"/>
<path d="M5430 6259 c-74 -19 -79 -22 -139 -81 -39 -38 -70 -114 -47 -115 11
0 55 -5 164 -19 29 -3 52 -2 52 3 0 24 42 53 78 53 55 -1 85 -28 88 -81 l2
-44 -121 0 c-146 0 -213 -19 -258 -74 -50 -61 -59 -183 -19 -262 62 -121 268
-146 378 -46 l22 20 0 -26 c0 -14 5 -29 12 -33 13 -8 185 -12 197 -4 5 3 6 25
2 50 -4 25 -8 140 -9 255 -2 116 -5 224 -8 240 -27 137 -206 211 -394 164z
m195 -431 c8 -8 -13 -58 -25 -58 -5 0 -9 -5 -7 -11 4 -20 -61 -51 -108 -51
-53 -1 -75 14 -75 53 0 33 21 57 58 65 15 3 31 7 37 8 18 5 115 0 120 -6z"/>
<path d="M6316 6263 c-27 -8 -65 -27 -85 -41 -34 -27 -35 -27 -29 -4 10 38
-11 47 -108 45 -49 -1 -91 -2 -94 -2 -3 -1 -5 -162 -5 -358 l0 -357 99 -1 c57
0 100 4 102 10 2 6 5 107 7 225 2 187 5 219 21 249 27 51 55 70 101 71 45 0
54 -5 78 -40 15 -21 17 -56 17 -266 0 -278 -13 -251 120 -249 l85 0 -1 265 c0
291 -8 341 -61 400 -49 55 -159 79 -247 53z"/>
<path d="M3685 6178 l0 -88 43 0 43 0 -2 -292 c-1 -265 -3 -298 -21 -345 -11
-29 -24 -53 -29 -53 -5 0 -9 -6 -9 -14 0 -7 -7 -19 -16 -26 -13 -11 -2 -20 77
-63 l92 -50 20 24 c33 40 77 142 83 194 4 28 6 209 7 403 0 334 -1 355 -19
372 -16 16 -38 20 -144 22 l-125 3 0 -87z"/>
<path d="M4120 6260 l-35 -5 -1 -82 0 -83 31 -1 c16 -1 35 -1 41 0 8 1 11 -79
10 -269 -1 -148 1 -271 4 -271 3 -1 49 -2 103 -3 l97 -1 0 60 c3 598 2 617
-17 636 -15 15 -37 19 -108 21 -50 2 -106 1 -125 -2z"/>
<path d="M4478 6258 c-7 -4 8 -54 42 -138 29 -73 53 -139 53 -146 0 -8 5 -14
10 -14 5 0 7 -7 3 -15 -3 -8 -2 -15 3 -15 5 0 16 -21 26 -47 37 -100 127 -328
131 -333 3 -2 43 -4 89 -5 l84 -1 17 46 c9 25 22 59 29 75 7 17 25 59 38 95
124 321 179 458 188 473 6 11 8 21 6 23 -3 3 -54 6 -115 7 -61 1 -109 1 -107
-1 2 -2 -3 -20 -12 -40 -8 -20 -16 -43 -18 -51 -2 -9 -9 -29 -16 -46 -6 -16
-14 -37 -16 -45 -2 -8 -21 -64 -42 -124 l-38 -110 -23 60 c-12 32 -23 64 -24
69 -1 6 -4 15 -7 20 -3 6 -11 30 -19 55 -7 25 -18 59 -25 75 -7 17 -20 54 -30
83 -9 28 -22 52 -28 53 -61 4 -191 3 -199 -3z"/>
<path d="M6803 6262 c-35 -2 -63 -6 -64 -10 -1 -4 -2 -42 -2 -85 l-2 -77 43 0
42 0 0 -192 c-1 -106 -1 -229 -1 -273 l1 -80 97 0 c54 0 100 3 103 7 8 11 5
650 -4 675 -10 31 -73 42 -213 35z"/>
<path d="M5730 5050 l0 -110 -40 16 c-58 23 -139 15 -183 -19 -54 -41 -80
-106 -81 -207 -1 -141 52 -218 156 -228 47 -4 128 20 128 38 0 5 7 10 15 14 8
3 14 2 14 -2 -5 -33 3 -42 37 -42 36 0 36 0 30 38 -3 20 -5 166 -6 325 l0 287
-35 0 -35 0 0 -110z m-40 -168 l35 -17 1 -79 c2 -90 -6 -125 -38 -171 -52 -77
-162 -56 -186 35 -10 39 -9 118 3 158 29 95 91 120 185 74z"/>
<path d="M24 5132 c-21 -3 -21 -5 18 -130 22 -70 48 -154 58 -187 10 -33 35
-115 56 -182 l37 -123 32 0 c32 0 32 1 64 103 18 56 37 113 42 127 5 14 20 63
33 110 47 162 43 161 81 35 19 -60 52 -171 75 -245 l42 -136 33 4 32 4 48 156
c26 87 53 168 58 182 6 14 9 31 8 38 -1 6 3 12 9 12 6 0 9 4 6 8 -3 5 10 55
28 113 33 103 33 104 12 110 -30 8 -55 0 -60 -20 -23 -89 -112 -367 -118 -369
-5 -2 -6 -8 -2 -13 3 -5 2 -15 -3 -21 -4 -7 -9 -22 -10 -32 -6 -33 -11 -30
-23 16 -7 23 -19 60 -26 81 -8 21 -12 43 -9 48 4 5 2 9 -2 9 -5 0 -15 21 -22
48 -7 26 -26 88 -42 137 -16 50 -29 96 -29 103 0 6 -3 12 -7 13 -62 6 -62 6
-80 -46 -9 -27 -18 -54 -19 -60 -1 -5 -16 -53 -32 -105 -17 -52 -43 -135 -58
-185 l-27 -90 -22 70 c-30 95 -77 246 -80 259 -1 6 -5 18 -8 26 -3 8 -13 40
-22 71 -16 58 -28 68 -71 61z"/>
<path d="M870 5093 l0 -43 44 0 44 0 -3 38 c-1 20 -3 39 -4 42 0 3 -19 5 -41
5 l-40 0 0 -42z"/>
<path d="M3344 5132 c-16 -2 -20 -10 -21 -42 l-1 -40 43 0 43 0 0 43 c0 44 -5
47 -64 39z"/>
<path d="M4683 5130 c-12 -3 -18 -15 -18 -32 -1 -29 3 -31 47 -28 l27 1 -2
-248 c-2 -273 4 -248 -59 -252 -12 -1 -16 -9 -15 -28 1 -16 5 -30 8 -33 4 -3
54 -4 112 -2 l104 3 -3 26 c-3 31 -17 41 -50 37 l-24 -2 0 248 0 248 38 -2
c40 -1 38 -4 33 59 -1 10 -164 14 -198 5z"/>
<path d="M7383 5131 c-5 -3 -9 -23 -10 -43 l-1 -38 43 0 43 0 0 40 c1 24 -4
40 -11 41 -7 0 -22 2 -34 3 -12 1 -26 0 -30 -3z"/>
<path d="M2759 5098 c-1 -2 -2 -32 -3 -68 -1 -43 -6 -65 -14 -66 -7 -1 -23 -2
-35 -3 -24 -1 -25 -6 -18 -64 1 -5 6 -5 12 -2 5 4 20 4 32 1 21 -5 22 -9 21
-143 -1 -76 3 -155 9 -177 18 -65 88 -92 166 -65 33 12 38 27 20 60 -8 16 -13
18 -24 9 -20 -17 -76 -15 -89 2 -7 10 -11 69 -11 164 l0 149 60 0 60 1 3 34 3
35 -63 0 -63 0 0 65 0 65 -33 3 c-17 2 -33 2 -33 0z"/>
<path d="M3047 5093 c-2 -5 -3 -36 -3 -70 1 -37 -3 -62 -9 -62 -5 1 -21 1 -35
0 -25 -1 -28 -11 -21 -62 1 -3 16 -5 33 -5 l33 1 1 -150 c2 -190 0 -175 28
-208 29 -34 76 -43 134 -28 44 12 51 26 32 62 -9 15 -15 17 -30 9 -10 -5 -33
-10 -50 -10 -42 0 -47 18 -46 185 l1 140 60 0 c67 0 76 6 66 43 -7 24 -11 26
-67 26 l-59 1 -1 55 c-1 30 -2 61 -3 68 -1 13 -57 17 -64 5z"/>
<path d="M6798 5033 l-3 -68 -32 -3 c-29 -3 -33 -7 -33 -33 0 -29 4 -31 48
-32 22 0 22 -1 22 -151 0 -124 3 -157 18 -186 22 -46 55 -62 115 -57 62 5 83
24 66 60 -7 15 -16 24 -21 21 -5 -3 -22 -9 -39 -14 -24 -7 -34 -5 -50 11 -17
17 -19 34 -19 169 l0 150 33 -2 c93 -3 99 -1 95 34 l-3 33 -62 -2 -63 -1 0 69
0 69 -35 0 -34 0 -3 -67z"/>
<path d="M8149 4969 c-26 -4 -57 -13 -70 -20 -13 -7 -28 -12 -32 -11 -5 1 -6
-1 -3 -6 3 -5 -1 -18 -9 -28 -20 -26 -19 -90 2 -125 17 -28 61 -51 152 -79 50
-16 76 -49 67 -85 -13 -52 -115 -65 -185 -24 l-35 21 -18 -22 c-25 -31 -23
-37 25 -62 45 -23 181 -36 192 -18 3 6 14 10 23 11 29 1 64 56 67 107 6 84
-22 113 -147 153 -73 23 -88 34 -88 64 0 53 83 74 162 41 50 -21 54 -21 66 13
10 28 8 30 -26 47 -20 9 -38 17 -39 16 -2 0 -15 3 -30 7 -16 4 -49 4 -74 0z"/>
<path d="M845 4961 c-13 -4 -20 -15 -20 -31 0 -20 6 -26 27 -28 l28 -3 2 -197
3 -196 23 1 c12 0 27 1 32 2 6 1 10 82 10 220 0 214 -1 220 -21 226 -31 10
-61 12 -84 6z"/>
<path d="M1070 4872 c-1 -268 -1 -338 -1 -349 1 -8 15 -13 36 -13 l35 0 1 138
c1 75 1 141 0 146 -3 18 20 74 38 90 18 16 62 24 90 15 20 -6 34 58 14 65 -27
11 -84 6 -113 -9 -16 -8 -30 -11 -32 -6 -2 5 -18 11 -35 14 l-33 5 0 -96z"/>
<path d="M1441 4956 c-81 -29 -129 -135 -118 -258 7 -75 58 -167 97 -174 3 0
19 -6 35 -13 38 -16 136 -9 193 14 37 15 43 21 37 39 -4 12 -7 27 -7 34 -2 15
3 16 -53 -9 -65 -29 -133 -29 -174 0 -31 22 -65 85 -58 105 3 7 60 11 159 11
l154 -1 -3 61 c-5 88 -42 158 -97 184 -47 23 -113 26 -165 7z m132 -67 c28
-13 57 -64 57 -100 0 -18 -9 -19 -120 -19 l-120 0 6 28 c22 92 95 130 177 91z"/>
<path d="M1835 4960 l-30 -5 0 -219 0 -220 27 -7 c17 -4 31 -3 35 4 3 6 7 72
8 147 1 105 5 145 18 172 29 62 90 88 145 61 40 -20 44 -41 44 -230 l0 -153
34 0 34 0 0 175 c0 130 -4 185 -14 210 -32 75 -131 97 -221 50 -30 -17 -46
-21 -42 -12 8 22 -6 33 -38 27z"/>
<path d="M2385 4963 c-38 -9 -87 -56 -108 -102 -28 -61 -29 -199 -3 -251 25
-48 73 -88 121 -101 50 -14 141 -5 189 17 38 18 43 32 26 65 -11 19 -11 19
-51 -2 -52 -26 -137 -28 -174 -3 -29 19 -51 56 -56 93 l-4 25 155 0 155 1 -3
61 c-4 100 -38 161 -105 189 -35 14 -100 18 -142 8z m134 -81 c23 -17 55 -95
43 -107 -3 -3 -56 -5 -119 -5 -107 0 -113 1 -113 20 0 34 29 79 62 100 36 22
91 18 127 -8z"/>
<path d="M3305 4960 c-24 -4 -30 -10 -30 -30 0 -20 6 -26 28 -28 l27 -3 0
-195 0 -194 35 0 c26 0 35 4 36 18 3 98 -1 413 -5 420 -8 13 -54 19 -91 12z"/>
<path d="M3524 4963 c-8 -3 -8 -66 -5 -405 l1 -48 35 0 35 0 0 133 c0 72 5
148 10 168 19 69 88 110 147 88 40 -15 47 -44 48 -219 l1 -165 35 -3 36 -3 -2
178 c-2 182 -7 211 -44 250 -39 42 -149 43 -203 3 -27 -20 -28 -20 -28 -1 0
13 -9 20 -28 23 -16 2 -33 3 -38 1z"/>
<path d="M4053 4949 c-87 -43 -107 -202 -34 -275 l25 -25 -18 -47 c-35 -89
-38 -86 101 -92 67 -3 125 -8 128 -12 14 -14 7 -59 -11 -73 -51 -39 -141 -39
-216 0 l-46 24 -11 -30 c-6 -17 -8 -35 -6 -40 3 -4 31 -17 63 -29 46 -18 72
-21 133 -18 118 7 173 51 173 140 0 33 -6 46 -32 69 -18 16 -42 29 -55 30 -12
0 -52 1 -89 2 -38 0 -68 2 -68 3 0 2 5 15 12 29 9 20 19 25 50 26 50 2 48 1
85 24 56 33 78 115 61 220 -2 15 3 20 22 22 14 0 31 1 38 2 7 1 12 15 12 34
l0 32 -138 2 c-121 2 -144 0 -179 -18z m140 -55 c35 -11 54 -90 34 -147 -23
-68 -156 -71 -172 -4 -30 122 26 185 138 151z"/>
<path d="M5005 4962 l-30 -3 0 -224 0 -225 35 0 35 0 1 143 c0 114 4 149 18
179 37 78 128 98 173 39 9 -11 12 -69 13 -188 l0 -173 35 0 c40 0 37 -21 37
201 0 167 -11 206 -64 239 -19 12 -51 20 -75 20 -45 0 -123 -26 -123 -41 0 -5
-5 -9 -11 -9 -5 0 -7 4 -4 10 11 18 -10 35 -40 32z"/>
<path d="M5917 4955 c-1 -5 -2 -87 -1 -182 2 -194 10 -223 74 -256 46 -24 126
-19 167 11 38 27 43 27 43 3 0 -19 39 -34 58 -22 5 3 8 102 7 225 -1 206 -3
220 -21 226 -46 17 -50 7 -50 -128 -1 -160 -7 -191 -45 -230 -38 -38 -77 -45
-127 -20 -31 16 -35 40 -35 223 l-1 160 -33 0 c-18 0 -34 -4 -36 -10z"/>
<path d="M6442 4953 c-66 -32 -89 -115 -49 -174 21 -31 41 -42 159 -84 50 -18
64 -39 54 -80 -13 -51 -102 -64 -178 -26 l-43 21 -17 -23 c-10 -12 -18 -25
-18 -29 0 -15 99 -52 150 -56 105 -7 167 34 180 121 6 38 3 50 -20 83 -22 33
-38 43 -114 69 -68 23 -91 36 -97 53 -26 69 83 102 168 52 l33 -19 16 31 c15
30 15 32 -2 45 -48 35 -167 44 -222 16z"/>
<path d="M7078 4960 c-1 -3 -2 -105 -3 -228 l-2 -223 36 3 35 3 1 150 c1 123
5 157 19 188 20 41 64 60 103 46 19 -7 23 -4 28 23 5 21 3 33 -6 39 -22 14
-93 10 -115 -5 -14 -11 -22 -11 -32 -3 -14 11 -61 17 -64 7z"/>
<path d="M7329 4958 c-2 -10 -2 -35 0 -48 0 -5 12 -10 26 -10 l25 0 0 -195 0
-195 35 0 35 0 0 220 c0 186 -2 222 -15 226 -23 9 -105 10 -106 2z"/>
<path d="M7662 4953 c-40 -19 -85 -76 -98 -123 -15 -49 -10 -168 8 -210 47
-112 179 -150 312 -91 l47 20 -16 31 c-15 29 -18 31 -38 17 -29 -19 -105 -35
-141 -30 -35 5 -73 29 -88 56 -15 29 -28 77 -20 78 4 1 75 2 157 3 l150 1 -3
65 c-5 128 -71 200 -183 200 -30 0 -69 -8 -87 -17z m148 -63 c25 -13 50 -61
50 -95 l0 -25 -115 0 c-113 0 -115 0 -115 23 0 35 37 87 72 102 35 14 75 12
108 -5z"/>
</g>
</svg>
